<svg xmlns:mydata="http://www.w3.org/2000/svg" mydata:contrastcolor="3e4532" mydata:template="Contrast" mydata:presentation="2.5" mydata:layouttype="undefined" mydata:specialfontid="undefined" mydata:id1="008" mydata:id2="049" mydata:companyname="VDG Solar" mydata:companytagline="" version="1.1" xmlns="http://www.w3.org/2000/svg" xmlns:xlink="http://www.w3.org/1999/xlink" viewBox="0 0 550 470" style=""><defs style="animation-play-state: running;"><g fill-rule="none" font-family="none" font-weight="none" font-size="none" text-anchor="none" style="mix-blend-mode: normal; animation-play-state: running;" id="interstellar-group"><g data-paper-data="{&quot;isGlobalGroup&quot;:true,&quot;bounds&quot;:{&quot;x&quot;:145.99999999999997,&quot;y&quot;:105.99999999999997,&quot;width&quot;:258,&quot;height&quot;:258}}" style="animation-play-state: running;"><g data-paper-data="{&quot;fillRule&quot;:&quot;evenodd&quot;,&quot;fillRuleOriginal&quot;:&quot;evenodd&quot;,&quot;isIcon&quot;:true,&quot;iconStyle&quot;:&quot;standalone&quot;,&quot;selectedEffects&quot;:{&quot;container&quot;:&quot;circle_simple_outline3&quot;,&quot;transformation&quot;:&quot;&quot;,&quot;pattern&quot;:&quot;&quot;},&quot;bounds&quot;:{&quot;x&quot;:199.28482567183445,&quot;y&quot;:159.28482427707894,&quot;width&quot;:151.4306036972753,&quot;height&quot;:151.43055069656663},&quot;widthRatioIconToContainer&quot;:0.7600508073049164,&quot;heightRatioIconToContainer&quot;:0.6957846082034318,&quot;relativeBoundsIconToContainer&quot;:{&quot;top&quot;:0.05360982697253689,&quot;left&quot;:0.000003174583057020953},&quot;iconType&quot;:&quot;icon&quot;,&quot;isDetailed&quot;:false,&quot;source&quot;:&quot;noun&quot;,&quot;rawIconId&quot;:&quot;1861809&quot;,&quot;blockLetter&quot;:&quot;O&quot;,&quot;suitableAsStandaloneIcon&quot;:true}" fill-rule="evenodd" style="animation-play-state: running;"><path d="M311.06731,190.43674c7.75407,0 14.69725,4.00864 18.573,10.72392c3.87704,6.71464 3.87704,14.73202 0,21.44603l-36.06692,62.46983c-3.87576,6.71464 -10.81893,10.72327 -18.57236,10.72327c-7.75407,0 -14.69725,-4.00863 -18.57428,-10.72327l-36.06629,-62.46983c-3.87641,-6.71464 -3.87641,-14.73202 0,-21.44667c3.87641,-6.71464 10.81957,-10.72328 18.57302,-10.72328zM238.93346,194.88747c-6.14402,0 -11.64659,3.17662 -14.71834,8.49797c-3.07231,5.32135 -3.07231,11.67459 0,16.99594l10.22849,17.71656c0.37546,-2.51918 1.21962,-4.99 2.55076,-7.29574c3.65286,-6.32716 10.21352,-10.10483 17.54853,-10.10483l2.72443,0.0431l0.02493,-0.0431h33.8782l0.76615,-1.27845c2.98914,-5.17672 3.0041,-11.62178 0.02123,-16.78852c-2.84144,-4.92082 -7.69704,-7.74295 -13.32135,-7.74295zM306.00121,254.64899l19.78445,-34.26761c3.07227,-5.32071 3.07227,-11.67459 0.00128,-16.99531c-3.0724,-5.32199 -8.57496,-8.49861 -14.71962,-8.49861h-19.92818c1.83551,1.50736 3.42625,3.35771 4.67337,5.51753c3.77511,6.53957 3.76028,14.68983 -0.03977,21.27032l-1.41451,2.36008l-16.93865,29.33809l0.72394,1.30262c2.88978,5.00714 8.09936,8.01483 13.91613,8.01483c5.81677,0 11.02636,-3.00768 13.93467,-8.0459zM261.14705,225.14811l13.71484,23.75471l13.71433,-23.75471zM275.00039,291.34907c6.14467,0 11.64608,-3.17662 14.71834,-8.49797l9.88755,-17.12588c-2.35279,0.91999 -4.89857,1.41657 -7.54665,1.41657c-7.42631,0 -14.07637,-3.83983 -17.78882,-10.27133l-1.35428,-2.43528h0.00013l-16.89517,-29.26277l-1.51401,-0.0243c-5.69081,0 -10.81023,2.94567 -13.65844,7.87952c-2.922,5.06111 -2.90282,11.13749 0.05218,16.25512h-0.00013l19.38032,33.56834c3.0724,5.32135 8.57496,8.49797 14.71898,8.49797zM221.46134,181.46133c6.98527,-6.98527 15.0073,-12.39368 24.0661,-16.22522c9.38028,-3.96752 19.20453,-5.95128 29.47274,-5.95128c10.26807,0 20.09225,1.98376 29.47253,5.95128c9.05896,3.83155 17.08105,9.23995 24.06627,16.22522c6.98521,6.9853 12.39356,15.00733 16.22505,24.0661c3.9676,9.38028 5.9514,19.20451 5.9514,29.47269c0,10.26835 -1.9838,20.09253 -5.9514,29.47253c-3.83149,9.05896 -9.23984,17.08105 -16.22505,24.06627c-6.98521,6.98521 -15.0073,12.39356 -24.06627,16.22505c-9.38028,3.9676 -19.20445,5.9514 -29.47253,5.9514c-10.26833,0 -20.09257,-1.9838 -29.47274,-5.9514c-9.05883,-3.83149 -17.08086,-9.23984 -24.0661,-16.22505c-6.98527,-6.98521 -12.39368,-15.0073 -16.22523,-24.06627c-3.96752,-9.38028 -5.95128,-19.20445 -5.95128,-29.47253c0,-10.26821 1.98376,-20.09245 5.95128,-29.47269c3.83155,-9.0588 9.23995,-17.08083 16.22523,-24.0661zM225.57971,284.42042c6.44978,6.44997 13.8553,11.44316 22.21658,14.97955c8.65509,3.6608 17.72305,5.49119 27.20388,5.49119c9.48097,0 18.54885,-1.83039 27.20367,-5.49119c8.36139,-3.53668 15.76693,-8.52986 22.21663,-14.97955c6.44997,-6.44969 11.44316,-13.85523 14.97955,-22.21663c3.6608,-8.65509 5.49119,-17.72298 5.49119,-27.20367c0,-9.48088 -1.83039,-18.54883 -5.49119,-27.20384c-3.53668,-8.36136 -8.52986,-15.7669 -14.97955,-22.21659c-6.44969,-6.44974 -13.85523,-11.44288 -22.21663,-14.97941c-8.65509,-3.6608 -17.72298,-5.49119 -27.20367,-5.49119c-9.48083,0 -18.54879,1.83039 -27.20388,5.49119c-8.36131,3.53653 -15.76684,8.52967 -22.21658,14.97941c-6.44975,6.44975 -11.44289,13.85529 -14.97942,22.21659c-3.6608,8.65506 -5.49119,17.72301 -5.49119,27.20384c0,9.48069 1.83039,18.54858 5.49119,27.20367c3.53651,8.36139 8.52965,15.76693 14.97942,22.21663z" data-paper-data="{&quot;isPathIcon&quot;:true}" style="animation-play-state: running;"></path></g><g data-paper-data="{&quot;isPrimaryText&quot;:true}" fill-rule="nonzero" style="animation-play-state: running;"><path d="M190.1163,203.68198c-0.26887,0.73004 -0.80453,1.10718 -1.60698,1.13142l-24.5726,0.49023c-0.36939,0.00608 -0.67402,-0.03505 -0.91389,-0.12339c-0.22944,-0.0845 -0.43048,-0.20592 -0.60312,-0.36425c-0.17264,-0.15833 -0.30672,-0.34095 -0.40225,-0.54787c-0.09553,-0.20692 -0.14852,-0.42481 -0.15898,-0.65369c-0.01046,-0.22888 0.02849,-0.46326 0.11683,-0.70312c0.26887,-0.73004 0.78559,-1.12007 1.55017,-1.17011l20.33337,-0.36378l-15.24029,-13.46521c-0.56485,-0.49228 -0.70516,-1.12429 -0.42093,-1.89605c0.0845,-0.22944 0.20592,-0.43048 0.36425,-0.60312c0.15833,-0.17264 0.34095,-0.30672 0.54787,-0.40225c0.20692,-0.09553 0.42742,-0.14756 0.66152,-0.15609c0.23409,-0.00853 0.46586,0.02945 0.6953,0.11395c0.27116,0.09986 0.5297,0.26614 0.77562,0.49884l18.38486,16.31105c0.59504,0.53893 0.75813,1.17341 0.48927,1.90345z" data-paper-data="{&quot;glyphName&quot;:&quot;V&quot;,&quot;glyphIndex&quot;:0,&quot;firstGlyphOfWord&quot;:true,&quot;word&quot;:1}" style="animation-play-state: running;"></path><path d="M199.78613,178.39666c1.69702,-2.1009 2.40259,-4.49548 2.11671,-7.18372c-0.1446,-1.35975 -0.50985,-2.58342 -1.09573,-3.671c-0.58589,-1.08759 -1.41487,-2.06436 -2.48693,-2.93033c-2.09226,-1.69003 -4.49032,-2.39128 -7.19419,-2.10374c-2.70387,0.28754 -4.90082,1.47744 -6.59086,3.5697l-2.11603,2.61965l15.25101,12.31909zM181.78579,163.85677c2.30459,-2.85308 5.29333,-4.47491 8.96622,-4.8655c1.84426,-0.19613 3.5737,-0.05997 5.18831,0.40847c1.61462,0.46844 3.14816,1.28928 4.60064,2.46253c2.86173,2.31158 4.48788,5.30381 4.87847,8.9767c0.38893,3.65726 -0.5724,6.91675 -2.88397,9.77848l-3.22643,3.99431c-0.15364,0.19021 -0.33529,0.33992 -0.54496,0.44915c-0.20967,0.10923 -0.42565,0.17764 -0.64796,0.20523c-0.2223,0.02759 -0.44743,0.01004 -0.67538,-0.05265c-0.22795,-0.06269 -0.43703,-0.17086 -0.62724,-0.3245l-18.00034,-14.53988c-0.19021,-0.15364 -0.33992,-0.33529 -0.44915,-0.54496c-0.10923,-0.20967 -0.17373,-0.42607 -0.19351,-0.6492c-0.01978,-0.22313 0.00168,-0.44868 0.06437,-0.67663c0.06269,-0.22795 0.17086,-0.43703 0.3245,-0.62724z" data-paper-data="{&quot;glyphName&quot;:&quot;D&quot;,&quot;glyphIndex&quot;:1,&quot;word&quot;:1}" style="animation-play-state: running;"></path><path d="M233.97492,148.96001c0.24878,0.39496 0.3187,0.85005 0.20976,1.36525c-1.04272,2.99479 -2.88062,5.32145 -5.51372,6.97998c-3.12209,1.96654 -6.47642,2.54258 -10.06299,1.72813c-3.58657,-0.81446 -6.36312,-2.78273 -8.32966,-5.90483c-1.96062,-3.11269 -2.5337,-6.46232 -1.71924,-10.04889c0.81794,-3.60189 2.78325,-6.38315 5.89594,-8.34377c2.67071,-1.68222 5.63664,-2.32229 8.89779,-1.9202c0.41732,0.07865 0.76517,0.33896 1.04357,0.78095c0.13624,0.21629 0.22301,0.43746 0.26032,0.66353c0.03731,0.22606 0.03073,0.45021 -0.01974,0.67246c-0.05047,0.22224 -0.1437,0.42873 -0.27969,0.61947c-0.13599,0.19074 -0.30743,0.35126 -0.51431,0.48157c-0.38556,0.24286 -0.81765,0.318 -1.29628,0.22543c-1.07009,-0.11406 -2.13014,-0.05056 -3.18015,0.19049c-1.05,0.24106 -2.0593,0.66664 -3.02791,1.27674c-2.29455,1.44529 -3.7429,3.49374 -4.34504,6.14534c-0.59518,2.62095 -0.17013,5.0787 1.27516,7.37326c1.45121,2.30395 3.48729,3.75352 6.10825,4.3487c2.63628,0.59866 5.1064,0.17238 7.41035,-1.27883c1.70211,-1.07212 2.94418,-2.47838 3.72622,-4.21879l-2.75434,-4.37281l-3.89321,2.45225c-0.42318,0.26655 -0.8685,0.34674 -1.33598,0.24059c-0.46748,-0.10616 -0.83449,-0.37082 -1.10104,-0.794c-0.13031,-0.20689 -0.21561,-0.42571 -0.25588,-0.65647c-0.04027,-0.23076 -0.03518,-0.45727 0.01529,-0.67951c0.05047,-0.22224 0.14135,-0.42725 0.27263,-0.61503c0.13129,-0.18777 0.30508,-0.34978 0.52137,-0.48602l5.40254,-3.40294c0.19748,-0.12439 0.41073,-0.20289 0.63976,-0.2355c0.22902,-0.03261 0.45466,-0.02368 0.6769,0.02679c0.22224,0.05047 0.43109,0.14222 0.62652,0.27524c0.19544,0.13303 0.35535,0.29828 0.47974,0.49576z" data-paper-data="{&quot;glyphName&quot;:&quot;G&quot;,&quot;glyphIndex&quot;:2,&quot;lastGlyphOfWord&quot;:true,&quot;word&quot;:1}" style="animation-play-state: running;"></path><path d="M268.64437,131.45942c-1.63559,-0.38758 -2.88497,-0.9358 -3.74813,-1.64466c-0.86317,-0.70886 -1.48051,-1.45089 -1.85204,-2.22608c-0.37152,-0.77519 -0.582,-1.60666 -0.63142,-2.49439c-0.06054,-1.08748 0.08992,-2.08374 0.45138,-2.98879c0.36147,-0.90505 0.92253,-1.72381 1.68319,-2.45629l-0.01665,0.00093c1.21435,-1.18072 2.68151,-1.81895 4.40151,-1.91471c0.55484,-0.03089 1.11353,0.00758 1.67609,0.1154c0.56256,0.10782 1.10971,0.28885 1.64146,0.54309c0.53175,0.25424 1.03407,0.57969 1.50697,0.97634c0.47289,0.39666 0.90264,0.86807 1.28924,1.41423c0.18251,0.27925 0.28335,0.59087 0.3025,0.93487c0.01421,0.25522 -0.0172,0.49073 -0.09424,0.70651c-0.07704,0.21578 -0.19153,0.4086 -0.34347,0.57846c-0.15194,0.16986 -0.33364,0.3052 -0.54508,0.40602c-0.21144,0.10082 -0.43923,0.15803 -0.68336,0.17162c-0.22193,0.01236 -0.42075,-0.00997 -0.59646,-0.06697c-0.17571,-0.057 -0.33631,-0.14268 -0.48182,-0.25702c-0.1455,-0.11434 -0.28654,-0.24841 -0.42311,-0.40221c-0.13657,-0.1538 -0.28285,-0.3321 -0.43885,-0.53491c-0.28794,-0.37356 -0.66758,-0.64462 -1.1389,-0.81317c-0.47133,-0.16855 -0.97331,-0.23801 -1.50595,-0.20835c-0.42168,0.02348 -0.82747,0.13233 -1.21737,0.32657c-0.38991,0.19424 -0.73187,0.44981 -1.0259,0.76672c-0.29403,0.31691 -0.52671,0.68606 -0.69804,1.10745c-0.17133,0.42139 -0.24372,0.87066 -0.21716,1.34782c0.04757,0.85445 0.3209,1.51545 0.82001,1.98299c0.4991,0.46755 1.33495,0.83565 2.50754,1.1043c1.98391,0.44611 3.55789,1.12653 4.72192,2.04126c1.16404,0.91473 1.97205,1.83259 2.42404,2.75357c0.45199,0.92098 0.70703,1.90302 0.7651,2.94611c0.14456,2.59663 -0.69793,4.75845 -2.52747,6.48545l0.01665,-0.00093c-1.46955,1.39528 -3.18638,2.1476 -5.1505,2.25695c-0.65471,0.03645 -1.31389,-0.00755 -1.97756,-0.13201c-0.66366,-0.12445 -1.30653,-0.3252 -1.9286,-0.60224c-0.62207,-0.27704 -1.20962,-0.63392 -1.76267,-1.07064c-0.55304,-0.43672 -1.04013,-0.93833 -1.46125,-1.50483c-0.24971,-0.28664 -0.386,-0.63525 -0.40885,-1.04583c-0.01359,-0.24413 0.01798,-0.47686 0.0947,-0.69818c0.07673,-0.22133 0.19106,-0.41692 0.34301,-0.58678c0.15194,-0.16986 0.33086,-0.30505 0.53676,-0.40556c0.2059,-0.10051 0.43646,-0.15787 0.69168,-0.17208c0.65471,-0.03645 1.16365,0.20793 1.52682,0.73314c0.50622,0.69534 1.11907,1.20665 1.83855,1.53392c0.71948,0.32727 1.48425,0.46836 2.29431,0.42326c0.63251,-0.03521 1.22201,-0.19326 1.7685,-0.47413c0.54648,-0.28087 1.01605,-0.64373 1.4087,-1.08857c0.39265,-0.44484 0.69513,-0.9598 0.90745,-1.54487c0.21231,-0.58507 0.30055,-1.19941 0.26472,-1.84302c-0.03398,-0.61032 -0.17969,-1.17824 -0.43713,-1.70377c-0.25745,-0.52553 -0.72542,-1.03377 -1.40392,-1.52472c-0.6785,-0.49095 -1.73413,-0.90804 -3.16689,-1.25126z" data-paper-data="{&quot;glyphName&quot;:&quot;S&quot;,&quot;glyphIndex&quot;:3,&quot;firstGlyphOfWord&quot;:true,&quot;word&quot;:2}" style="animation-play-state: running;"></path><path d="M305.32473,125.80847c-1.32803,-0.3682 -2.60476,-0.47422 -3.83021,-0.31806c-1.22545,0.15616 -2.43322,0.57096 -3.62332,1.24438c-1.1901,0.67342 -2.16417,1.49324 -2.92222,2.45945c-0.75805,0.96621 -1.32117,2.11333 -1.68938,3.44135c-0.72453,2.61321 -0.42111,5.09624 0.91025,7.44907c1.33137,2.35283 3.30366,3.89152 5.91687,4.61605c2.61321,0.72453 5.09624,0.42111 7.44907,-0.91025c2.35283,-1.33137 3.89152,-3.30366 4.61605,-5.91687c0.72156,-2.6025 0.41666,-5.08017 -0.91471,-7.43301c-1.33911,-2.36651 -3.30991,-3.91055 -5.91241,-4.63211zM315.5576,138.81785c-0.98287,3.54497 -3.08161,6.22697 -6.29624,8.04599c-3.20095,1.81128 -6.57391,2.22548 -10.11888,1.24262c-3.55568,-0.98584 -6.23916,-3.07923 -8.05044,-6.28018c-1.81128,-3.20095 -2.224,-6.57927 -1.23816,-10.13495c0.98287,-3.54497 3.07477,-6.2231 6.27572,-8.03437c3.21463,-1.81902 6.59443,-2.23709 10.1394,-1.25423c3.53426,0.9799 6.2109,3.07716 8.02992,6.29179c0.91338,1.61415 1.47548,3.25778 1.68629,4.93087c0.21081,1.67309 0.06828,3.40392 -0.42761,5.19247z" data-paper-data="{&quot;glyphName&quot;:&quot;O&quot;,&quot;glyphIndex&quot;:4,&quot;word&quot;:2}" style="animation-play-state: running;"></path><path d="M333.97102,135.22375c0.28022,-0.40076 0.66022,-0.64361 1.14,-0.72853c0.47978,-0.08493 0.92005,0.01272 1.32081,0.29294c0.40076,0.28022 0.64361,0.66022 0.72853,1.14c0.08493,0.47978 -0.01272,0.92005 -0.29294,1.32081l-12.24687,17.51509l10.13744,7.08828c0.40076,0.28022 0.64361,0.66022 0.72853,1.14c0.08493,0.47978 -0.01272,0.92005 -0.29294,1.32081c-0.28022,0.40076 -0.66022,0.64361 -1.14,0.72853c-0.47978,0.08493 -0.92005,-0.01272 -1.32081,-0.29294l-11.58564,-8.1009c-0.20949,-0.14648 -0.37529,-0.31665 -0.49739,-0.51052c-0.12211,-0.19387 -0.20302,-0.40301 -0.24275,-0.62743c-0.03972,-0.22441 -0.03552,-0.44862 0.01262,-0.67263c0.04814,-0.22401 0.14545,-0.44075 0.29193,-0.65024z" data-paper-data="{&quot;glyphName&quot;:&quot;L&quot;,&quot;glyphIndex&quot;:5,&quot;word&quot;:2}" style="animation-play-state: running;"></path><path d="M358.8952,175.14459l4.2141,-6.83257l-7.71782,2.20862zM342.80432,170.41598l23.63302,-6.73825c0.85257,-0.19981 1.51043,0.00589 1.97356,0.6171c0.47656,0.62893 0.49663,1.3179 0.0602,2.06691l-12.92655,21.00591c-0.12347,0.20511 -0.28707,0.38485 -0.49081,0.53923c-0.38976,0.29533 -0.82598,0.40973 -1.30865,0.34321c-0.48268,-0.06653 -0.87168,-0.29467 -1.16701,-0.68443c-0.29533,-0.38976 -0.40638,-0.82155 -0.33314,-1.29537c0.03434,-0.24912 0.10438,-0.46953 0.21013,-0.66121l4.44882,-7.2405l-5.15489,-6.80305l-8.1841,2.31094c-0.21314,0.04995 -0.44428,0.05776 -0.6934,0.02342c-0.48268,-0.06653 -0.87168,-0.29467 -1.16701,-0.68443c-0.29533,-0.38976 -0.40806,-0.82376 -0.33817,-1.30201c0.06988,-0.47825 0.2997,-0.86504 0.68946,-1.16037c0.2126,-0.16109 0.46211,-0.27346 0.74854,-0.33711z" data-paper-data="{&quot;glyphName&quot;:&quot;A&quot;,&quot;glyphIndex&quot;:6,&quot;word&quot;:2}" style="animation-play-state: running;"></path><path d="M380.75211,192.62741l-8.80323,3.0573l1.53139,4.40949c0.21148,0.60893 0.52568,1.14101 0.94261,1.59623c0.41693,0.45522 0.89586,0.8095 1.43679,1.06282c0.54093,0.25333 1.1166,0.40341 1.72701,0.45025c0.6104,0.04684 1.21482,-0.03365 1.81325,-0.24148c0.60893,-0.21148 1.14101,-0.52568 1.59623,-0.94261c0.45522,-0.41693 0.81303,-0.89414 1.07343,-1.43165c0.2604,-0.53751 0.41311,-1.11409 0.45813,-1.72974c0.04502,-0.61565 -0.03639,-1.2227 -0.24422,-1.82113zM359.40347,196.30036l21.85847,-7.5913c0.23097,-0.08022 0.46341,-0.11388 0.6973,-0.10099c0.2339,0.01289 0.45339,0.06902 0.6585,0.16838c0.2051,0.09936 0.38429,0.2342 0.53755,0.40451c0.15327,0.17031 0.27183,0.3762 0.35569,0.61767l2.11113,6.0788c0.36826,1.06038 0.51083,2.13149 0.42771,3.21333c-0.08312,1.08184 -0.35516,2.09399 -0.81611,3.03645c-0.46095,0.94246 -1.09014,1.78158 -1.88758,2.51737c-0.79744,0.73578 -1.72635,1.28781 -2.78673,1.65607c-0.69292,0.24065 -1.39755,0.3883 -2.11388,0.44295c-0.71634,0.05465 -1.42509,0.01256 -2.12628,-0.12629c-0.70118,-0.13885 -1.38954,-0.37627 -2.06507,-0.71227c-0.67553,-0.336 -1.31895,-0.77433 -1.93026,-1.31499l-6.30263,7.81845c-0.23198,0.28057 -0.50545,0.47555 -0.82042,0.58493c-0.24147,0.08386 -0.47653,0.11844 -0.70518,0.10372c-0.22865,-0.01471 -0.44552,-0.07175 -0.65062,-0.17111c-0.2051,-0.09936 -0.3852,-0.23682 -0.54029,-0.41238c-0.15509,-0.17556 -0.27274,-0.37882 -0.35296,-0.6098c-0.20418,-0.58793 -0.09712,-1.16043 0.3212,-1.71748l6.96708,-8.64922l-1.62983,-4.69296l-8.04732,2.79478c-0.46195,0.16043 -0.91217,0.13443 -1.35066,-0.078c-0.43849,-0.21243 -0.73796,-0.54962 -0.89839,-1.01157c-0.16043,-0.46195 -0.13443,-0.91217 0.078,-1.35066c0.21243,-0.43849 0.54962,-0.73796 1.01157,-0.89839z" data-paper-data="{&quot;glyphName&quot;:&quot;R&quot;,&quot;glyphIndex&quot;:7,&quot;lastGlyphOfWord&quot;:true,&quot;word&quot;:2}" style="animation-play-state: running;"></path></g><g data-paper-data="{&quot;isContainerElementsWrapper&quot;:true}" fill-rule="evenodd" style="animation-play-state: running;"><path d="M275.0001,106c-17.48575,0 -34.2258,3.38258 -50.22015,10.14764c-15.43632,6.52898 -29.10186,15.74087 -40.99663,27.63568c-11.8948,11.89475 -21.1067,25.56029 -27.63568,40.99663c-6.76509,15.99425 -10.14764,32.7343 -10.14764,50.22015l0.0001,0.01604c0.00206,17.47954 3.38457,34.21424 10.14754,50.20411c6.52898,15.43662 15.74087,29.10223 27.63568,40.99683c11.89478,11.8946 25.56033,21.1063 40.99663,27.63508c15.99439,6.76523 32.73444,10.14784 50.22015,10.14784c17.48555,0 34.2253,-3.38228 50.22015,-10.14784c15.43662,-6.52878 29.10223,-15.74048 40.99683,-27.63508c11.8946,-11.8946 21.1063,-25.56022 27.63508,-40.99683c6.76523,-15.99452 10.14784,-32.73457 10.14784,-50.22015c0,-17.48575 -3.38228,-34.2258 -10.14684,-50.22015c-6.52945,-15.43611 -15.74147,-29.10166 -27.63608,-40.99663c-11.8946,-11.89494 -25.56022,-21.10683 -40.99683,-27.63568c-15.99386,-6.76509 -32.73391,-10.14764 -50.22015,-10.14764zM216.79946,176.79956c-15.76672,15.76671 -23.79963,34.73687 -24.09875,56.91049h-44.11434c0.16232,-16.67058 3.47483,-32.6456 9.93753,-47.92508c6.39827,-15.12733 15.42619,-28.51977 27.08375,-40.17731c11.65752,-11.65756 25.04996,-20.68548 40.17731,-27.08375c15.67306,-6.6292 32.0781,-9.94381 49.21513,-9.94381c17.13686,0 33.54187,3.31464 49.21593,9.94381c15.12712,6.39834 28.51909,15.42626 40.17592,27.08376c11.65816,11.65772 20.68621,25.05016 27.08415,40.1773c6.46237,15.27941 9.77491,31.25444 9.93763,47.92508h-44.11411c-0.29888,-22.17332 -8.33167,-41.14348 -24.09838,-56.91049c-16.07156,-16.07168 -35.47194,-24.10751 -58.20114,-24.10751c-22.72873,0 -42.12894,8.03584 -58.20064,24.10751zM275.0001,155.27205c22.01654,0 40.80854,7.78395 56.376,23.35185c15.56812,15.56786 23.35218,34.35992 23.35218,56.3762c0,22.01621 -7.78373,40.80854 -23.35218,56.376c-15.56746,15.56812 -34.35946,23.35218 -56.376,23.35218c-22.01631,0 -40.80834,-7.78373 -56.3763,-23.35218c-15.56701,-15.56679 -23.35093,-34.3576 -23.35177,-56.37241l0,-0.00359c0,-22.01634 7.78392,-40.80841 23.35177,-56.3762c15.56792,-15.5679 34.36002,-23.35185 56.3763,-23.35185zM165.08643,275.53666c-0.26879,-0.73025 -0.1057,-1.36487 0.48926,-1.90384l18.38486,-16.31066c0.27726,-0.24408 0.53579,-0.41046 0.77568,-0.49912c0.22944,-0.08468 0.46117,-0.12254 0.69528,-0.11357c0.23409,0.00797 0.4546,0.06077 0.66151,0.15542c0.20691,0.09564 0.38858,0.22715 0.54499,0.39452c0.15641,0.16737 0.27879,0.37127 0.36713,0.6117c0.26886,0.72992 0.12855,1.36188 -0.42094,1.89587l-15.24031,13.46536l20.3334,0.36363c0.74922,0.00797 1.26594,0.39784 1.55016,1.1696c0.0845,0.23013 0.12249,0.46127 0.11395,0.69539c-0.00854,0.23412 -0.06056,0.45529 -0.15609,0.66151c-0.09553,0.20722 -0.22962,0.38954 -0.40226,0.54794c-0.17264,0.1584 -0.37367,0.27995 -0.60311,0.36463c-0.27116,0.09963 -0.57579,0.14047 -0.91389,0.12354l-24.57257,-0.49016c-0.80248,-0.02491 -1.33817,-0.40149 -1.60706,-1.13174zM381.26151,281.29102l-21.8578,-7.59145c-0.23113,-0.0797 -0.43437,-0.19726 -0.60971,-0.35267c-0.17634,-0.15542 -0.31382,-0.33474 -0.41245,-0.53997c-0.09963,-0.20523 -0.15674,-0.42208 -0.17136,-0.65055c-0.01494,-0.22914 0.01993,-0.46425 0.10361,-0.70535l2.11106,-6.07914c0.36861,-1.06001 0.92054,-1.98952 1.65577,-2.78652c0.73623,-0.797 1.57707,-1.42265 2.52251,-1.87694c0.94644,-0.45429 1.96063,-0.72228 3.04156,-0.80597c1.08193,-0.08269 2.1539,0.05978 3.21391,0.42839c0.6924,0.2401 1.33697,0.56089 1.93373,0.96238c0.59576,0.40149 1.12577,0.87371 1.59002,1.41667c0.46425,0.54395 0.85678,1.15665 1.17857,1.83908c0.32179,0.68243 0.55491,1.42564 0.70037,2.22862l9.79118,-2.22862c0.35666,-0.07671 0.6914,-0.05978 1.00721,0.04882c0.24109,0.08468 0.44732,0.20324 0.61768,0.35566c0.17036,0.15342 0.30485,0.33275 0.40448,0.53798c0.09863,0.20523 0.15542,0.4244 0.16837,0.65852c0.01295,0.23412 -0.02092,0.46625 -0.10162,0.69738c-0.20423,0.58779 -0.64258,0.97035 -1.31605,1.14868l-10.82828,2.46872l-1.62987,4.69335l8.04674,2.79449c0.46226,0.1604 0.799,0.46027 1.01219,0.89862c0.2122,0.43835 0.2381,0.88866 0.07771,1.35092c-0.1604,0.46127 -0.46027,0.799 -0.89862,1.0112c-0.43835,0.2122 -0.88866,0.2381 -1.35092,0.07771zM362.23207,270.94095l8.80389,3.0575l1.53124,-4.40942c0.21121,-0.60871 0.29389,-1.22141 0.24906,-1.83709c-0.04483,-0.61568 -0.20124,-1.19052 -0.46824,-1.72452c-0.26799,-0.53399 -0.62664,-1.0092 -1.07595,-1.42365c-0.45031,-0.41544 -0.97434,-0.72627 -1.57308,-0.93449c-0.60871,-0.21121 -1.22141,-0.29489 -1.83709,-0.25006c-0.61568,0.04483 -1.19152,0.19825 -1.7295,0.45828c-0.53698,0.26002 -1.01518,0.61867 -1.43162,1.07396c-0.4171,0.45496 -0.72959,0.98164 -0.93747,1.58006zM202.53546,289.3826c2.30456,2.85327 3.26157,6.11633 2.87104,9.78919c-0.19616,1.84407 -0.69299,3.50681 -1.49052,4.98625c-0.79753,1.47977 -1.92254,2.80645 -3.37502,3.98003c-2.86172,2.31131 -6.12903,3.2717 -9.80192,2.88117c-3.65723,-0.38854 -6.64164,-2.01376 -8.95321,-4.87567l-3.22647,-3.99398c-0.15362,-0.19028 -0.26182,-0.3995 -0.32448,-0.62764c-0.06266,-0.22814 -0.08418,-0.4533 -0.06436,-0.67646c0.01973,-0.22316 0.08428,-0.43935 0.19347,-0.64956c0.10929,-0.20921 0.25893,-0.39153 0.44921,-0.54495l18.00029,-14.53933c0.1902,-0.15442 0.39929,-0.26201 0.62723,-0.32478c0.22795,-0.06276 0.45309,-0.0807 0.67538,-0.0528c0.2223,0.0279 0.43829,0.09564 0.64796,0.20523c0.20967,0.10959 0.39132,0.25903 0.54496,0.44931zM347.091,291.66302l12.88056,20.9293c0.13848,0.25803 0.31382,0.46824 0.52702,0.62963c0.38954,0.29489 0.8239,0.41145 1.3031,0.34969c0.4792,-0.06177 0.86674,-0.28792 1.16263,-0.67745c0.29489,-0.39053 0.40946,-0.82589 0.34271,-1.30908c-0.03387,-0.24906 -0.10461,-0.46924 -0.21021,-0.66151l-4.43831,-7.25372l5.15462,-6.80242l8.17426,2.32426c0.2132,0.04981 0.44433,0.05778 0.69339,0.02291c0.47621,-0.05778 0.86176,-0.28094 1.15665,-0.67147c0.29589,-0.38954 0.40946,-0.82589 0.34371,-1.30808c-0.06675,-0.48318 -0.29489,-0.87172 -0.68443,-1.16761c-0.20423,-0.15342 -0.42142,-0.26301 -0.65255,-0.32577l-23.71881,-6.76257c-0.83984,-0.21718 -1.49737,-0.01196 -1.97358,0.61768c-0.46326,0.6107 -0.48318,1.30011 -0.06077,2.06623zM184.53509,303.92292c1.69704,2.10077 3.88968,3.29395 6.57792,3.57954c1.35975,0.14545 2.63286,0.04483 3.81934,-0.29888c1.18648,-0.34371 2.31576,-0.94943 3.38782,-1.81517c2.09226,-1.68965 3.28216,-3.88639 3.5697,-6.59022c0.28755,-2.70383 -0.4137,-5.10281 -2.10374,-7.19494l-2.11603,-2.61915l-15.25105,12.31868zM352.45284,293.61369l7.71798,2.20869l-3.50382,4.62361zM223.13175,337.2227c0.51178,-0.12453 0.89205,-0.38356 1.14081,-0.77907l4.16703,-6.61512c0.12443,-0.19825 0.20433,-0.41345 0.2399,-0.64756c0.03557,-0.23312 0.02819,-0.46127 -0.02232,-0.68343c-0.05041,-0.22216 -0.13987,-0.42939 -0.26819,-0.62166c-0.12832,-0.19327 -0.2912,-0.35168 -0.48866,-0.47621l-5.40258,-3.40221c-0.21629,-0.13649 -0.43745,-0.22316 -0.6635,-0.26102c-0.22605,-0.03686 -0.45021,-0.02989 -0.67247,0.01993c-0.22226,0.05081 -0.42869,0.14346 -0.61947,0.27995c-0.19078,0.13549 -0.35128,0.30784 -0.48159,0.51407c-0.2665,0.42341 -0.3467,0.86873 -0.2406,1.33598c0.1062,0.46724 0.37081,0.83486 0.79401,1.10086l3.89326,2.45278l-2.75434,4.37256c-1.90753,0.04682 -3.71234,-0.46625 -5.41444,-1.53822c-2.30394,-1.45154 -3.75518,-3.49486 -4.35393,-6.13194c-0.59516,-2.62015 -0.16707,-5.08289 1.28407,-7.38722c1.44527,-2.29437 3.47842,-3.73894 6.09936,-4.3347c2.65163,-0.60174 5.12473,-0.17999 7.4193,1.26524c0.96856,0.60971 1.78828,1.33598 2.45925,2.17881c0.67088,0.84383 1.18594,1.77234 1.54529,2.78652c0.12324,0.47123 0.37758,0.82888 0.76313,1.07197c0.20692,0.13051 0.4258,0.21519 0.65653,0.25604c0.23073,0.03985 0.45728,0.03487 0.67944,-0.01594c0.22226,-0.04981 0.42729,-0.14147 0.61509,-0.27198c0.18779,-0.13151 0.34978,-0.30585 0.48597,-0.52204c0.27845,-0.44134 0.36294,-0.86774 0.25365,-1.27819c-1.04577,-3.11529 -2.90408,-5.51327 -5.57474,-7.19594c-3.11269,-1.96063 -6.47007,-2.53148 -10.07192,-1.71356c-3.58661,0.81394 -6.36018,2.77756 -8.32081,5.88985c-1.96654,3.12226 -2.54257,6.47664 -1.7281,10.06316c0.81444,3.58651 2.78274,6.36307 5.9048,8.32968c2.6331,1.65876 5.52542,2.31131 8.67677,1.95863zM320.7112,315.8132c-0.27995,-0.40049 -0.37758,-0.84084 -0.2929,-1.32103c0.08568,-0.4792 0.32777,-0.85977 0.72926,-1.13971c0.40049,-0.27995 0.84084,-0.37758 1.32004,-0.2929c0.48019,0.08468 0.85977,0.32777 1.14071,0.72826l12.24695,17.51513l10.13688,-7.08834c0.40049,-0.27995 0.84084,-0.37758 1.32103,-0.2929c0.4792,0.08468 0.85977,0.32777 1.13971,0.72826c0.27995,0.40149 0.37758,0.84183 0.2929,1.32103c-0.08468,0.48019 -0.32777,0.85977 -0.72826,1.13971l-11.58543,8.10153c-0.21021,0.14645 -0.4264,0.24408 -0.65055,0.2919c-0.22416,0.04782 -0.44831,0.05181 -0.67247,0.01295c-0.22416,-0.03985 -0.43337,-0.12154 -0.62764,-0.24309c-0.19327,-0.12254 -0.36363,-0.28792 -0.51008,-0.49713zM314.3033,341.32228c1.81916,-3.21491 2.23759,-6.5952 1.25428,-10.13987c-0.49613,-1.78828 -1.26524,-3.34542 -2.30732,-4.67143c-1.04208,-1.32601 -2.37009,-2.44481 -3.98402,-3.35837c-3.21491,-1.81916 -6.58922,-2.23858 -10.12393,-1.25926c-3.54487,0.98297 -6.22682,3.08174 -8.04584,6.29632c-1.81129,3.20096 -2.22543,6.57428 -1.24263,10.11895c0.98589,3.55563 3.07922,6.23954 6.27979,8.05073c3.20129,1.81119 6.57959,2.22397 10.13489,1.23834c3.54533,-0.98297 6.2236,-3.07477 8.03479,-6.2754zM296.63972,326.99914c0.97035,-0.76512 2.11903,-1.33099 3.44704,-1.69961c2.60221,-0.72129 5.08687,-0.41245 7.45397,0.92652c2.35215,1.33099 3.88937,3.2986 4.61066,5.90081c0.72527,2.61317 0.42142,5.09584 -0.90958,7.44899c-1.33166,2.35249 -3.30391,3.89103 -5.91675,4.61564c-2.61317,0.72527 -5.09683,0.42142 -7.44899,-0.90958c-2.35315,-1.33199 -3.89196,-3.30358 -4.61644,-5.91675c-0.36822,-1.32834 -0.47618,-2.60188 -0.32388,-3.82063c0.15233,-1.21842 0.56517,-2.42289 1.23854,-3.61242c0.67347,-1.19052 1.49508,-2.16785 2.46543,-2.93297zM268.60545,339.24011c-1.58245,-0.56687 -2.76331,-1.2503 -3.54238,-2.05029c-0.77917,-0.80099 -1.31037,-1.60696 -1.59351,-2.41791c-0.28323,-0.81195 -0.4001,-1.66175 -0.35068,-2.54941c0.06057,-1.08791 0.32069,-2.06125 0.78037,-2.92002c0.45967,-0.85977 1.10813,-1.61094 1.94548,-2.25452l-0.01674,-0.001c1.33797,-1.0381 2.86692,-1.51032 4.58685,-1.41468c0.55491,0.03088 1.10584,0.13151 1.65298,0.30087c0.54714,0.17036 1.07077,0.41046 1.57099,0.72228c0.50022,0.31183 0.96338,0.6904 1.38928,1.13772c0.42593,0.44632 0.80072,0.96238 1.12437,1.54818c0.15037,0.29821 0.21595,0.61934 0.19676,0.96338c-0.01415,0.25504 -0.07153,0.48518 -0.17205,0.6914c-0.10052,0.20523 -0.23571,0.38455 -0.40557,0.53698c-0.16986,0.15143 -0.36543,0.266 -0.58679,0.34271c-0.22127,0.07671 -0.45399,0.10859 -0.69817,0.09464c-0.22187,-0.01196 -0.41703,-0.05679 -0.5853,-0.1325c-0.16827,-0.07671 -0.3184,-0.17933 -0.45031,-0.30884c-0.1319,-0.13051 -0.25723,-0.27895 -0.37589,-0.44732c-0.11865,-0.16737 -0.24418,-0.36164 -0.37668,-0.57982c-0.24478,-0.40348 -0.59197,-0.71531 -1.04168,-0.93449c-0.44971,-0.22017 -0.94086,-0.3447 -1.47346,-0.37459c-0.42171,-0.02391 -0.83705,0.03985 -1.24611,0.18929c-0.40906,0.14944 -0.77728,0.36563 -1.10465,0.64856c-0.32747,0.28194 -0.59965,0.62266 -0.81673,1.02315c-0.21698,0.3995 -0.33883,0.83785 -0.36543,1.31505c-0.04752,0.85479 0.15073,1.5412 0.59486,2.06224c0.44413,0.52004 1.23396,0.97832 2.36949,1.37583c1.92207,0.6635 3.41087,1.51431 4.46611,2.5524c1.05533,1.0381 1.75649,2.04033 2.10349,3.0057c0.3469,0.96537 0.49135,1.96959 0.43327,3.01267c-0.14456,2.59624 -1.22181,4.65151 -3.23165,6.16482l0.01664,0.001c-1.61543,1.2234 -3.4051,1.78031 -5.36921,1.67072c-0.65474,-0.03587 -1.30496,-0.15276 -1.95066,-0.35068c-0.64577,-0.19726 -1.26235,-0.46824 -1.84984,-0.81195c-0.58749,-0.3447 -1.13184,-0.76413 -1.63296,-1.26026c-0.50112,-0.49514 -0.9295,-1.04806 -1.28517,-1.65777c-0.21639,-0.31183 -0.31312,-0.67347 -0.29031,-1.08392c0.01365,-0.24408 0.07083,-0.47222 0.17165,-0.68343c0.10082,-0.21187 0.23618,-0.39352 0.40607,-0.54495c0.16986,-0.15243 0.36264,-0.267 0.57842,-0.34371c0.21579,-0.07771 0.4513,-0.10859 0.70654,-0.09464c0.65464,0.03686 1.13334,0.33574 1.436,0.89862c0.42587,0.74719 0.97816,1.32336 1.65687,1.7285c0.67871,0.40514 1.42312,0.6303 2.2332,0.67546c0.63249,0.0352 1.23589,-0.05645 1.81019,-0.27497c0.57424,-0.21918 1.08123,-0.52702 1.52078,-0.92552c0.43965,-0.3985 0.7974,-0.8767 1.07336,-1.43461c0.27596,-0.5579 0.43178,-1.15864 0.46764,-1.80222c0.03397,-0.6107 -0.04782,-1.19152 -0.24528,-1.74245c-0.19756,-0.55093 -0.60622,-1.10783 -1.22609,-1.67072c-0.61977,-0.56288 -1.6226,-1.09488 -3.00839,-1.595z" data-paper-data="{&quot;isBaseLogoContainer&quot;:true}" style="animation-play-state: running;"></path></g></g></g></defs><style style="animation-play-state: running;">
            .strokeItem{
                fill: none;
                stroke-width: 2;
                stroke-linejoin: round;
                stroke-dasharray: 70 90;
                stroke-dashoffset: 0;
                animation: stroke 6000ms infinite linear;
            }

            @keyframes stroke {
                100% {
                    stroke-dashoffset: -160;
                }
            }
        </style><defs style="animation-play-state: running;"><linearGradient x1="146" y1="235" x2="404" y2="235" gradientUnits="userSpaceOnUse" id="color-1271544843" style="animation-play-state: running;"><stop offset="0" stop-color="#d0e6a5" style="animation-play-state: running;"></stop><stop offset="1" stop-color="#ffdd94" style="animation-play-state: running;"></stop></linearGradient></defs><use href="#interstellar-group" class="strokeItem" style="stroke: rgb(208, 230, 165); animation-delay: 0ms; animation-play-state: running;"></use><use href="#interstellar-group" class="strokeItem" style="stroke: rgb(255, 221, 148); animation-delay: -3000ms; animation-play-state: running;"></use></svg>